<?xml version="1.0"?><svg xmlns="http://www.w3.org/2000/svg"  viewBox="0 0 128 128" width="512px" height="512px">    <path d="M 64 6 C 48.5 6 33.9 12 23 23 C 6 39.9 1.2007813 65.099609 10.800781 87.099609 C 11.300781 88.199609 12.399609 88.900391 13.599609 88.900391 C 13.999609 88.900391 14.400781 88.799219 14.800781 88.699219 C 16.300781 87.999219 17.000391 86.300781 16.400391 84.800781 C 7.7003906 65.000781 11.999219 42.399219 27.199219 27.199219 C 37.099219 17.399219 50.1 12 64 12 C 75.7 12 86.800391 15.800391 95.900391 22.900391 L 90.599609 23.5 C 88.999609 23.7 87.8 25.200781 88 26.800781 C 88.2 28.300781 89.5 29.400391 91 29.400391 L 91.400391 29.400391 L 103.40039 28 C 105.00039 27.8 106.1 26.400781 106 24.800781 L 105.30078 13.5 C 105.20078 11.8 103.79961 10.599219 102.09961 10.699219 C 100.39961 10.799219 99.200781 12.200391 99.300781 13.900391 L 99.5 18 C 89.4 10.3 77 6 64 6 z M 114.25977 38.828125 C 113.86914 38.8375 113.47461 38.924609 113.09961 39.099609 C 111.59961 39.799609 110.89961 41.499609 111.59961 43.099609 C 120.29961 62.899609 116.10078 85.600391 100.80078 100.90039 C 90.900781 110.60039 77.9 116 64 116 C 52.3 116 41.199609 112.19961 32.099609 105.09961 L 37.400391 104.5 C 39.000391 104.3 40.2 102.79922 40 101.19922 C 39.8 99.599219 38.299219 98.399609 36.699219 98.599609 L 24.699219 100 C 23.099219 100.2 21.999609 101.59922 22.099609 103.19922 L 22.800781 114.5 C 22.900781 116.1 24.200781 117.30078 25.800781 117.30078 L 26 117.30078 C 27.7 117.20078 28.900781 115.79961 28.800781 114.09961 L 28.599609 110 C 38.599609 117.7 51 122 64 122 C 79.5 122 94.1 116 105 105 C 122.1 87.9 126.79961 62.699609 117.09961 40.599609 C 116.57461 39.474609 115.43164 38.8 114.25977 38.828125 z M 64 40 C 62.3 40 61 41.3 61 43 L 61 43.400391 C 56.3 44.700391 52.900391 48.999609 52.900391 54.099609 C 52.900391 57.699609 54.599609 60.999609 57.599609 63.099609 L 66.900391 69.599609 C 68.300391 70.599609 69.099609 72.100781 69.099609 73.800781 C 69.099609 76.600781 66.8 78.900391 64 78.900391 C 62 78.900391 60.100781 77.700781 59.300781 75.800781 C 58.600781 74.300781 56.900391 73.599219 55.400391 74.199219 C 53.900391 74.899219 53.200781 76.599609 53.800781 78.099609 C 55.200781 81.199609 57.8 83.500391 61 84.400391 L 61 85 C 61 86.7 62.3 88 64 88 C 65.7 88 67 86.7 67 85 L 67 84.599609 C 71.7 83.299609 75.099609 79.000391 75.099609 73.900391 C 75.099609 70.200391 73.300781 66.799219 70.300781 64.699219 L 61 58.300781 C 59.7 57.300781 58.900391 55.799609 58.900391 54.099609 C 58.900391 51.299609 61.2 49 64 49 C 66.1 49 67.899219 50.199609 68.699219 52.099609 C 69.299219 53.599609 71.099609 54.299219 72.599609 53.699219 C 74.099609 53.099219 74.799219 51.300781 74.199219 49.800781 C 72.899219 46.600781 70.2 44.300391 67 43.400391 L 67 43 C 67 41.3 65.7 40 64 40 z"/></svg>